<?xml version="1.0" encoding="utf-8"?>
<!-- Generator: Adobe Illustrator 16.0.0, SVG Export Plug-In . SVG Version: 6.00 Build 0)  -->
<!DOCTYPE svg PUBLIC "-//W3C//DTD SVG 1.1//EN" "http://www.w3.org/Graphics/SVG/1.1/DTD/svg11.dtd">
<svg version="1.1" id="Capa_1" xmlns="http://www.w3.org/2000/svg" xmlns:xlink="http://www.w3.org/1999/xlink" x="0px" y="0px"
	 width="566.93px" height="141.73px" viewBox="0 0 566.93 141.73" enable-background="new 0 0 566.93 141.73" xml:space="preserve">
<g>
	<path fill-rule="evenodd" clip-rule="evenodd" fill="#FFFFFF" d="M562.268,23.066c-6.092-4.744-12.821-8.456-20.102-11.046
		c-7.95-2.837-16.333-4.006-24.742-4.006c-5.855,0-11.697,0.742-17.235,2.586c-4.902,1.639-9.451,4.052-13.38,7.417
		c-3.712,3.201-6.593,6.99-8.68,11.434c-2.198,4.685-3.087,9.726-3.087,14.875v0.351c0,5.036,0.665,10.376,2.814,14.971
		c1.862,3.938,4.497,7.286,7.932,9.962c3.788,2.965,8.159,5.173,12.652,6.844c5.533,2.054,11.225,3.708,16.947,5.136
		c4.303,1.053,8.656,2.236,12.822,3.749c2.646,0.979,5.505,2.148,7.872,3.669c1.662,1.079,3.288,2.5,4.166,4.308
		c0.774,1.63,1.088,3.423,1.088,5.214v0.358c0,4.112-1.808,7.34-5.235,9.589c-3.974,2.636-9.216,3.306-13.888,3.306
		c-6.983,0-13.769-1.292-20.129-4.192c-5.419-2.459-12.416-4.946-18.46-4.15c-3.956,0.525-6.975,2.369-9.516,5.397
		c-1.475,1.762-2.657,3.759-3.743,5.776c7.017,6.212,14.968,11.016,23.806,14.185c8.883,3.159,18.08,4.809,27.505,4.809
		c6.134,0,12.267-0.706,18.145-2.521c5.073-1.568,9.854-3.907,14.006-7.254c3.929-3.184,6.935-7.095,9.088-11.67
		c2.395-5.118,3.274-10.678,3.274-16.288c0-4.593-0.634-9.338-2.491-13.586c-1.68-3.816-4.157-7.062-7.326-9.789
		c-3.583-3.078-7.789-5.446-12.132-7.272c-5.389-2.271-11.002-4.042-16.641-5.545c-4.442-1.175-8.887-2.404-13.294-3.743
		c-2.855-0.884-5.918-1.963-8.506-3.497c-1.849-1.075-3.615-2.527-4.621-4.462c-0.938-1.781-1.288-3.784-1.288-5.797v-0.336
		c0-3.605,1.625-6.474,4.453-8.659c3.491-2.719,8.433-3.366,12.721-3.366c5.683,0,11.185,1.229,16.437,3.383
		c6.826,2.804,16.998,5.974,23.204,0.155C559.523,30.707,561.126,26.722,562.268,23.066L562.268,23.066z"/>
	<path fill-rule="evenodd" clip-rule="evenodd" fill="#FFFFFF" d="M88.42,32.127c-1.162-2.75-2.305-5.51-3.484-8.273
		c-0.865-2.012-1.735-4.056-2.723-6.037c-1.191-2.391-2.687-5.051-4.971-6.603c-2.245-1.512-5.187-1.931-7.828-2.108
		c-2.153-0.174-4.348-0.192-6.511-0.229c-2.683-0.004-5.364,0-8.06,0L2.538,131.833c2.704,0,5.391,0,8.104-0.026
		c2.413-0.045,4.862-0.092,7.267-0.293c2.986-0.268,6.266-0.773,8.748-2.54c2.563-1.821,4.206-4.974,5.49-7.769
		c1.083-2.284,2.035-4.657,2.982-7.012c1.274-3.173,2.522-6.369,3.815-9.523l0.306-0.748h54.179l11.377,27.911h26.045L88.42,32.127z
		 M48.061,82.106l18.275-44.611l18.279,44.611H48.061z"/>
	<path fill-rule="evenodd" clip-rule="evenodd" fill="#FFFFFF" d="M140.659,9.779v122.05c6.548-0.067,15.32-0.696,20.007-5.514
		c4.042-4.187,4.648-10.979,4.648-16.497V50.444l62.016,81.389h21.532V9.779c-4.167,0-8.589-0.03-12.677,0.493
		c-2.682,0.354-5.65,1.001-7.76,2.864c-1.774,1.571-2.671,3.806-3.218,6.079c-0.902,3.683-1.016,7.95-1.016,11.715v57.752
		L164.148,9.779H140.659L140.659,9.779z"/>
	<path fill-rule="evenodd" clip-rule="evenodd" fill="#FFFFFF" d="M352.394,23.066c-6.102-4.744-12.819-8.456-20.104-11.046
		c-7.948-2.837-16.333-4.006-24.756-4.006c-5.827,0-11.674,0.742-17.214,2.586c-4.91,1.639-9.449,4.052-13.384,7.417
		c-3.709,3.188-6.615,7.008-8.677,11.434c-2.178,4.685-3.092,9.726-3.092,14.875v0.351c0,5.036,0.65,10.376,2.818,14.971
		c1.854,3.938,4.499,7.286,7.931,9.962c3.793,2.965,8.165,5.173,12.658,6.844c5.527,2.054,11.224,3.708,16.933,5.136
		c4.295,1.053,8.666,2.236,12.832,3.749c2.637,0.979,5.491,2.148,7.882,3.669c1.662,1.079,3.278,2.5,4.144,4.308
		c0.773,1.63,1.101,3.423,1.101,5.214v0.358c0,4.112-1.807,7.34-5.236,9.589c-3.992,2.636-9.224,3.306-13.896,3.306
		c-6.976,0-13.768-1.292-20.12-4.192c-5.414-2.459-12.417-4.946-18.468-4.15c-3.953,0.525-6.975,2.369-9.512,5.397
		c-1.466,1.762-2.659,3.759-3.743,5.776c7.026,6.212,14.966,11.016,23.809,14.185c8.879,3.159,18.076,4.809,27.497,4.809
		c6.119,0,12.276-0.706,18.148-2.521c5.063-1.568,9.85-3.907,13.993-7.254c3.938-3.184,6.946-7.095,9.102-11.67
		c2.357-4.994,3.273-10.451,3.273-15.95v-0.338c0-4.593-0.623-9.338-2.49-13.586c-1.661-3.816-4.162-7.062-7.328-9.789
		c-3.581-3.078-7.785-5.446-12.132-7.272c-5.377-2.271-10.991-4.042-16.647-5.545c-4.436-1.175-8.883-2.404-13.268-3.743
		c-2.855-0.884-5.941-1.963-8.522-3.497c-1.858-1.075-3.616-2.527-4.628-4.462c-0.933-1.781-1.287-3.784-1.287-5.797v-0.336
		c0-3.605,1.643-6.474,4.449-8.659c3.499-2.719,8.431-3.366,12.733-3.366c5.683,0,11.183,1.229,16.442,3.383
		c6.825,2.804,16.982,5.974,23.198,0.155C349.637,30.707,351.245,26.722,352.394,23.066L352.394,23.066z"/>
	<path fill-rule="evenodd" clip-rule="evenodd" fill="#FFFFFF" d="M370.126,9.779v122.054h92.385
		c0.023-5.137,0.079-12.185-2.722-16.305c-3.466-5.09-11.078-5.696-16.66-5.696h-48.15V81.355h58.655
		c0.022-2.632,0.1-5.29-0.055-7.899c-0.138-2.444-0.515-5.017-1.698-7.189c-3.425-6.37-13.147-6.902-19.434-6.902h-37.469V31.786
		h48.532c4.678,0,11.601-0.3,14.899-4.188c1.669-1.972,2.339-4.659,2.7-7.158c0.481-3.452,0.501-7.14,0.501-10.661H370.126
		L370.126,9.779z"/>
</g>
</svg>
